Patient4_TMGait_0pt2_01_left_08_EMG.mot
version=1
nRows=13
nColumns=33
inDegrees=no
endheader
time	1LAddLong	2LGlutMax	3LGlutMed	4LIliopsoas	5LSemiMemb	6LBicFemLong	7LRecFem	8LVastMed	9LVastLat	10LGasMed	11LTibAnt	12lTibPost	13LPeroneusLong	14LSol	15LExtDigLong	16LFlexDigLong	17RAddLong	18RGlutMax	19RGlutMed	20RIliopsoas	21RSemiMemb	22RBicFemLong	23RRecFem	24RVastMed	25RVastLat	26RGasMed	27RTibAnt	28RTibPost	29RPeroneusLong	30RSol	31RExtDigLong	32RFlexDigLong
19.095	0.002594	-0.01709	-0.046539	-0.004425	0.011139	-0.009155	-0.005035	0.004272	-0.045624	-0.017395	-0.040283	0.001526	0.50873	0.16388	0.42465	0.005493	0.001831	0.001373	-0.1532	-0.039978	-0.071411	0.046844	0.168	-0.060577	0.010681	0.010071	-0.21011	-0.008545	0.10162	-0.025787	-0.006561	-0.019073
19.096	0.003357	-0.046082	0.01297	-0.006866	0.011902	0.001678	0.047607	0.007935	-0.054016	0.000763	0.003662	0.003204	-0.099945	0.17792	-0.21072	0.000916	-0.005493	0.03479	-0.055084	-0.10223	-0.26077	0.076904	0.23514	-0.037994	-0.026093	-0.002747	0.15381	-0.00351	-0.16007	-0.059662	0.000305	-0.023041
19.097	-0.001526	-0.021057	-0.046997	0.005951	0.002594	-0.009155	0.018005	0.007629	-0.012512	-0.016022	0.021973	0.002441	-0.33508	0.12924	-0.40375	0.001373	0.014191	0.004578	-0.16892	-0.09964	-0.26016	0.061188	0.34424	0.09079	-0.000458	-0.002747	0.1088	-0.005341	-0.37582	-0.005798	0.002441	-0.02121
19.098	-0.007477	-0.032349	-0.069885	0.010071	0.009155	0.021973	0.051575	0.003052	-0.018768	-0.006561	0.023193	-0.000458	0.25024	0.10849	-0.1239	-0.012665	0.012512	0.011139	-0.39398	-0.028687	-0.23377	0.014038	0.31433	0.1886	-0.018311	0.006104	0.052795	-0.000153	-0.22629	0.033875	-0.004272	-0.016785
19.099	-0.012512	0.014648	-0.033264	0.02243	0.018311	0.020294	0.054016	0.002136	0.011292	-0.007477	0.032196	0.007477	0.41168	0.08194	-0.28702	-0.002747	0.010529	0.04364	-0.43366	0.041656	0.066986	-0.020752	0.27924	0.36468	0.009155	0.006714	0.047302	-0.002594	0.60821	0.06546	-0.002594	-0.014954
19.1	-0.017242	0.012207	0.007172	0.005341	-0.005493	0.000153	0.00351	0.005188	0.038147	0.000916	0.09491	0.002136	-0.17029	0.15182	-0.072327	-0.005798	0.010529	0.048981	-0.19974	0.099792	0.22369	-0.061798	0.39505	0.25436	-0.046234	0.006714	0.023651	-0.005646	0.85144	0.059204	-0.00061	-0.025024
19.101	-0.011292	0.057831	0.055237	-0.002441	-0.034485	-0.032501	-0.020905	0.012207	0.094299	-0.019531	0.086823	0.002899	-0.65231	0.19486	0.041504	0.013123	0.017242	0.023956	-0.09903	0.019379	0.077057	-0.089417	0.30456	0.066376	-0.11108	0.014343	-0.13534	-0.007019	0.57404	0.038452	-0.00885	-0.012512
19.102	0.009918	0.019684	-0.027008	0.000305	-0.085754	-0.038147	0.050812	0.010376	0.074005	0.00885	0.072327	0.005646	0.10895	0.08194	-0.014954	-0.009155	0.006104	0.02121	-0.23148	0.00473	0.012054	-0.069733	0.14206	-0.11154	-0.093079	0.009155	-0.27725	-0.008087	0.20157	0.053711	-0.011597	-0.011902
19.103	0.004578	0.017395	-0.013428	0.005188	-0.047455	-0.010071	0.076447	0.009613	-0.069427	-0.011139	-0.31952	0.003052	0.30502	0.001373	0.18265	-0.004272	-0.005951	0.011902	0.27481	0.028076	0.023651	-0.080566	-0.21835	-0.13855	-0.043945	0.005493	0.010071	-0.008698	-0.40344	0.04364	-0.003204	-0.006104
19.104	0.010681	0.045166	-0.032349	0.002747	-0.033875	-0.007935	0.07431	-0.006561	-0.12741	0.00885	-0.019073	-0.001831	-0.083618	0.081787	0.31403	0.004425	-0.026245	0.043945	0.57449	0.060272	0.072632	-0.081177	-0.64224	-0.13947	0.12405	0.000458	0.082245	0.002747	-0.26642	0.083618	-0.005646	-0.019073
19.105	0.018158	0.002441	-0.063324	0.005035	0.030212	-0.025024	0.072021	0.021057	-0.10071	-0.014038	0.028992	0.005646	-0.094452	0.20172	0.12512	0.016937	-0.037079	0.068054	0.31235	0.064545	0.05722	-0.063629	-0.60165	-0.18448	0.31067	0.001373	-0.010986	-0.007629	-0.053406	0.1236	-0.003052	-0.01358
19.106	0.011139	-0.004578	-0.085754	0.015869	0.082092	-0.03067	-0.011139	0.025482	-0.05661	-0.012054	0.011139	0.003815	0.10391	0.16266	-0.10071	0.016632	-0.00473	-0.011749	-0.13962	0.010834	0.039063	-0.046082	-0.32425	-0.020599	0.37598	0.000763	-0.12344	-0.003815	0.013275	0.13962	-0.003662	-0.018158
19.107	0.01236	-0.008392	-0.12909	0.004425	0.066833	-0.03067	-0.049438	0.009003	-0.04715	-0.006714	-0.013885	-0.001984	0.35706	0.037231	0.33905	0.017548	0.001831	0.010376	0.09491	-0.071869	-0.053253	-0.014954	-0.10971	-0.087585	0.29205	0.001068	0.10834	-0.006409	-0.063934	0.070038	-0.00412	-0.016022
